#!OML:ASF E:\emotionWalksFemale\Project 1\Capture day 1\Session 1\Female1.ASF
:FULLY-SPECIFIED
:DEGREES
178
root 7.82979 14.9937 41.9652 178.676 -20.4564 -179.275
lowerback 7.20931 2.58122 1.0309
upperback -2.53318 3.54397 -0.0322837
thorax -6.62818 1.69503 -1.06384
lowerneck -4.53111 13.5978 7.23843
upperneck 13.2082 17.8373 -2.3158
head 5.59151 8.84961 -0.624397
rclavicle -1.38808e-014 1.19271e-015
rhumerus -48.911 14.0788 -97.3005
rradius 33.9643
rwrist 12.7273
rhand -5.93552 -54.5798
rfingers 7.12502
rthumb 19.8943 -83.5815
lclavicle -1.38808e-014 1.19271e-015
lhumerus -40.3988 0.455032 84.6425
lradius 34.2786
lwrist -13.3069
lhand -7.08182 -33.3852
lfingers 7.12502
lthumb 18.7921 -4.27293
rfemur -3.5265 4.1461 24.6043
rtibia 30.3558
rfoot -29.2737 -32.4576
rtoes 7.41044
lfemur -11.6193 -24.9648 -23.5238
ltibia 34.452
lfoot -26.0926 3.27922
ltoes -35.5365
179
root 7.82839 14.993 41.9636 178.696 -20.4531 -179.286
lowerback 7.17444 2.57884 1.00302
upperback -2.53695 3.53808 -0.0227958
thorax -6.61459 1.69365 -1.03596
lowerneck -4.46671 13.5909 7.35946
upperneck 13.2521 17.8379 -2.45018
head 5.61838 8.84624 -0.681385
rclavicle 4.21672e-014 2.6339e-015
rhumerus -49.0336 14.2248 -97.4037
rradius 34.0444
rwrist 12.4078
rhand -5.54939 -54.5782
rfingers 7.12502
rthumb 20.2655 -83.5409
lclavicle 4.21672e-014 2.6339e-015
lhumerus -40.3151 0.680668 84.5527
lradius 34.1318
lwrist -13.3975
lhand -6.93074 -33.4087
lfingers 7.12502
lthumb 18.9374 -4.31055
rfemur -3.52353 4.18234 24.593
rtibia 30.3281
rfoot -29.2136 -32.3637
rtoes 7.81757
lfemur -11.6591 -24.7288 -23.511
ltibia 34.4693
lfoot -26.142 3.05422
ltoes -34.8687
180
root 7.82695 14.9895 41.9625 178.696 -20.4338 -179.307
lowerback 7.16384 2.58717 0.955264
upperback -2.53758 3.54612 0.00604706
thorax -6.61375 1.70023 -0.979773
lowerneck -4.38734 13.601 7.39685
upperneck 13.2431 17.8674 -2.56102
head 5.61761 8.85584 -0.721674
rclavicle -1.73952e-014 -3.97569e-015
rhumerus -49.0441 14.2152 -97.3578
rradius 34.0465
rwrist 12.5234
rhand -5.47335 -54.706
rfingers 7.12502
rthumb 20.3386 -83.661
lclavicle -1.73952e-014 -3.97569e-015
lhumerus -40.4794 0.819465 84.5763
lradius 34.4205
lwrist -13.4015
lhand -6.73862 -33.2377
lfingers 7.12502
lthumb 19.1222 -4.15777
rfemur -3.51544 4.24738 24.5721
rtibia 30.3276
rfoot -29.0487 -32.3439
rtoes 7.87402
lfemur -11.6169 -24.9398 -23.5755
ltibia 34.4689
lfoot -26.1725 3.33388
ltoes -35.5091
181
root 7.82602 14.9888 41.9614 178.665 -20.4273 -179.262
lowerback 7.1722 2.60535 1.00588
upperback -2.52459 3.57532 0.00250549
thorax -6.60091 1.71266 -1.01534
lowerneck -4.34353 13.6078 7.45229
upperneck 13.1902 17.8755 -2.57376
head 5.60044 8.86323 -0.736886
rclavicle -7.41405e-015 3.08116e-015
rhumerus -49.0333 14.1039 -97.3415
rradius 34.0397
rwrist 12.67
rhand -5.44895 -54.9021
rfingers 7.12502
rthumb 20.362 -83.8546
lclavicle -7.41405e-015 3.08116e-015
lhumerus -40.383 0.329608 84.789
lradius 34.3238
lwrist -12.8677
lhand -6.82405 -33.1226
lfingers 7.12502
lthumb 19.04 -4.03456
rfemur -3.49922 4.21913 24.609
rtibia 30.3598
rfoot -29.118 -32.4005
rtoes 7.7632
lfemur -11.5598 -25.1495 -23.5703
ltibia 34.4461
lfoot -26.11 3.54032
ltoes -35.7203
182
root 7.8251 14.9903 41.9601 178.699 -20.4176 -179.272
lowerback 7.136 2.6415 1.03835
upperback -2.52088 3.62323 -0.0484683
thorax -6.56986 1.73424 -1.09042
lowerneck -4.38496 13.5955 7.36488
upperneck 13.1629 17.8362 -2.37023
head 5.56988 8.85362 -0.668753
rclavicle -4.2953e-014 -6.4605e-016
rhumerus -49.064 13.9815 -97.3014
rradius 34.151
rwrist 12.8753
rhand -5.80363 -55.0172
rfingers 7.12502
rthumb 20.0211 -84.0057
lclavicle -4.2953e-014 -6.4605e-016
lhumerus -40.2759 0.438719 84.6789
lradius 34.2457
lwrist -13.0076
lhand -6.73304 -33.0293
lfingers 7.12502
lthumb 19.1276 -3.94989
rfemur -3.54217 4.14281 24.5831
rtibia 30.4032
rfoot -29.2619 -32.3847
rtoes 7.72771
lfemur -11.5722 -25.207 -23.578
ltibia 34.4118
lfoot -26.0324 3.62167
ltoes -35.5434
183
root 7.82335 14.9907 41.9591 178.791 -20.435 -179.337
lowerback 7.07897 2.66121 1.01938
upperback -2.53136 3.64478 -0.0825143
thorax -6.54668 1.74513 -1.11522
lowerneck -4.42054 13.5855 7.14028
upperneck 13.1328 17.8108 -2.14857
head 5.52389 8.84542 -0.57755
rclavicle -6.56114e-014 -9.0944e-015
rhumerus -49.0818 14.0067 -97.2683
rradius 34.2391
rwrist 12.9306
rhand -6.16741 -55.0649
rfingers 7.12502
rthumb 19.6714 -84.0896
lclavicle -6.56114e-014 -9.0944e-015
lhumerus -40.3563 0.32913 84.7479
lradius 34.4615
lwrist -12.9659
lhand -6.63971 -32.874
lfingers 7.12502
lthumb 19.2173 -3.8035
rfemur -3.62501 4.10195 24.5015
rtibia 30.4354
rfoot -29.275 -32.1918
rtoes 8.06658
lfemur -11.6328 -25.2769 -23.6236
ltibia 34.3864
lfoot -26.0201 3.66531
ltoes -35.5805
184
root 7.82211 14.9924 41.9583 178.885 -20.4423 -179.384
lowerback 7.02769 2.68631 0.994059
upperback -2.54716 3.6731 -0.115231
thorax -6.53277 1.75947 -1.13638
lowerneck -4.47816 13.5808 7.09566
upperneck 13.1774 17.7928 -2.05579
head 5.53395 8.83936 -0.540761
rclavicle 3.65577e-014 1.14301e-015
rhumerus -49.0457 14.0059 -97.3354
rradius 34.1932
rwrist 12.6673
rhand -5.85653 -55.1423
rfingers 7.12502
rthumb 19.9703 -84.1361
lclavicle 3.65577e-014 1.14301e-015
lhumerus -40.3552 0.500055 84.6694
lradius 34.3957
lwrist -13.0525
lhand -6.62421 -33.0962
lfingers 7.12502
lthumb 19.2322 -4.02716
rfemur -3.70891 4.0779 24.4393
rtibia 30.4475
rfoot -29.2516 -32.0375
rtoes 8.30209
lfemur -11.7315 -25.0317 -23.6092
ltibia 34.3781
lfoot -26.0425 3.35793
ltoes -35.4312
185
root 7.82089 14.9935 41.9573 178.921 -20.4007 -179.403
lowerback 7.01762 2.71055 0.988769
upperback -2.54877 3.7035 -0.13728
thorax -6.52687 1.77424 -1.15961
lowerneck -4.62365 13.5841 7.10619
upperneck 13.3265 17.7809 -1.99671
head 5.5999 8.83393 -0.509307
rclavicle 5.36097e-015 1.04362e-015
rhumerus -49.0211 14.0088 -97.4011
rradius 34.131
rwrist 12.5172
rhand -5.46071 -55.2732
rfingers 7.12502
rthumb 20.3507 -84.2269
lclavicle 5.36097e-015 1.04362e-015
lhumerus -40.3018 0.686567 84.5764
lradius 34.2586
lwrist -13.3226
lhand -6.65663 -33.3877
lfingers 7.12502
lthumb 19.201 -4.31555
rfemur -3.7469 4.11843 24.4133
rtibia 30.4428
rfoot -29.1589 -32.1213
rtoes 7.99905
lfemur -11.7648 -24.8065 -23.6036
ltibia 34.3854
lfoot -26.0694 3.19227
ltoes -35.4323
186
root 7.8192 14.9924 41.957 178.88 -20.3886 -179.363
lowerback 7.07108 2.67345 1.02981
upperback -2.52416 3.66131 -0.0947927
thorax -6.5327 1.75282 -1.13518
lowerneck -4.80934 13.6083 7.0274
upperneck 13.4925 17.8134 -1.99876
head 5.67724 8.84106 -0.476592
rclavicle 2.14159e-014 8.05078e-015
rhumerus -48.9974 14.0946 -97.3199
rradius 34.1374
rwrist 12.8991
rhand -5.73281 -55.3601
rfingers 7.12502
rthumb 20.0892 -84.3415
lclavicle 2.14159e-014 8.05078e-015
lhumerus -40.3031 0.68773 84.6497
lradius 34.3512
lwrist -13.3138
lhand -6.82683 -33.4041
lfingers 7.12502
lthumb 19.0374 -4.31581
rfemur -3.7111 4.1791 24.4572
rtibia 30.429
rfoot -29.1468 -32.2055
rtoes 7.99905
lfemur -11.7117 -25.0236 -23.614
ltibia 34.4038
lfoot -26.0782 3.47273
ltoes -35.6057
187
root 7.81908 14.9896 41.9563 178.838 -20.4202 -179.363
lowerback 7.10671 2.63168 0.990177
upperback -2.47504 3.60422 -0.0626438
thorax -6.50693 1.72784 -1.07291
lowerneck -4.91052 13.6493 6.94642
upperneck 13.5367 17.8663 -1.95189
head 5.69839 8.8646 -0.438789
rclavicle -4.7435e-014 2.68359e-015
rhumerus -48.9219 14.1105 -97.2127
rradius 34.1844
rwrist 13.2453
rhand -5.99611 -55.3114
rfingers 7.12502
rthumb 19.8361 -84.3192
lclavicle -4.7435e-014 2.68359e-015
lhumerus -40.2636 0.673704 84.7039
lradius 34.3321
lwrist -13.1982
lhand -7.08185 -33.2995
lfingers 7.12502
lthumb 18.7921 -4.18719
rfemur -3.64831 4.17994 24.4695
rtibia 30.4309
rfoot -29.1892 -32.2354
rtoes 7.71133
lfemur -11.6569 -25.2085 -23.6558
ltibia 34.4062
lfoot -26.0241 3.61107
ltoes -35.4768
188
root 7.81951 14.9868 41.9541 178.794 -20.4324 -179.417
lowerback 7.14354 2.63371 0.90763
upperback -2.43911 3.59921 -0.068059
thorax -6.49482 1.72912 -1.03278
lowerneck -4.91521 13.6755 6.8365
upperneck 13.5137 17.891 -1.79967
head 5.66869 8.88216 -0.379555
rclavicle 4.97614e-014 5.61567e-015
rhumerus -48.9491 14.2358 -97.3279
rradius 34.2211
rwrist 12.831
rhand -5.67451 -55.3683
rfingers 7.12502
rthumb 20.1452 -84.3438
lclavicle 4.97614e-014 5.61567e-015
lhumerus -40.2595 0.501021 84.7412
lradius 34.3376
lwrist -12.9734
lhand -7.09517 -33.1219
lfingers 7.12502
lthumb 18.7793 -4.00838
rfemur -3.57416 4.12286 24.4185
rtibia 30.4448
rfoot -29.1378 -32.249
rtoes 7.00729
lfemur -11.6119 -24.865 -23.7033
ltibia 34.4007
lfoot -25.9773 3.28138
ltoes -35.2477
189
root 7.81887 14.9871 41.9535 178.772 -20.4253 -179.443
lowerback 7.18736 2.6444 0.893926
upperback -2.43181 3.6125 -0.0723497
thorax -6.5125 1.73596 -1.03339
lowerneck -4.92349 13.6745 6.77914
upperneck 13.5321 17.8878 -1.75135
head 5.6659 8.88064 -0.357395
rclavicle -1.00616e-013 -3.8763e-015
rhumerus -49.0128 14.3572 -97.4397
rradius 34.2384
rwrist 12.3548
rhand -5.50797 -55.4684
rfingers 7.12502
rthumb 20.3053 -84.4269
lclavicle -1.00616e-013 -3.8763e-015
lhumerus -40.2589 0.389097 84.789
lradius 34.3286
lwrist -13.0425
lhand -7.2082 -33.1498
lfingers 7.12502
lthumb 18.6706 -4.02582
rfemur -3.54907 4.04894 24.3759
rtibia 30.4685
rfoot -29.2115 -32.2647
rtoes 6.96149
lfemur -11.5082 -25.287 -23.8014
ltibia 34.3842
lfoot -26.0012 3.77081
ltoes -34.9344
190
root 7.818 14.9894 41.9539 178.789 -20.4143 -179.418
lowerback 7.19169 2.65866 0.936508
upperback -2.43252 3.63497 -0.0859355
thorax -6.51176 1.74498 -1.0743
lowerneck -4.93069 13.6581 6.87951
upperneck 13.5184 17.8707 -1.85901
head 5.68134 8.8702 -0.402459
rclavicle 4.7932e-014 -1.98785e-015
rhumerus -49.0002 14.27 -97.414
rradius 34.2701
rwrist 12.3051
rhand -5.66878 -55.4652
rfingers 7.12502
rthumb 20.1507 -84.4401
lclavicle 4.7932e-014 -1.98785e-015
lhumerus -40.1753 0.295858 84.8421
lradius 34.2178
lwrist -13.0395
lhand -7.25654 -33.2809
lfingers 7.12502
lthumb 18.6241 -4.15247
rfemur -3.5798 4.04372 24.3944
rtibia 30.4759
rfoot -29.2893 -32.3087
rtoes 7.15186
lfemur -11.5668 -24.9193 -23.7248
ltibia 34.38
lfoot -26.07 3.3833
ltoes -35.2125
191
root 7.81811 14.9909 41.9536 178.817 -20.4129 -179.366
lowerback 7.2143 2.684 0.984431
upperback -2.47206 3.67221 -0.111813
thorax -6.5611 1.75979 -1.13514
lowerneck -4.941 13.6282 6.97843
upperneck 13.5003 17.8253 -1.89807
head 5.6881 8.85054 -0.430127
rclavicle -6.0971e-015 3.27995e-015
rhumerus -49.0113 14.109 -97.4163
rradius 34.259
rwrist 12.4298
rhand -5.85618 -55.3232
rfingers 7.12502
rthumb 19.9706 -84.317
lclavicle -6.0971e-015 3.27995e-015
lhumerus -40.2087 0.425983 84.7258
lradius 34.2898
lwrist -13.1954
lhand -7.02338 -33.3197
lfingers 7.12502
lthumb 18.8483 -4.21292
rfemur -3.61995 4.12025 24.4632
rtibia 30.4639
rfoot -29.2558 -32.2139
rtoes 7.6632
lfemur -11.5884 -25.3994 -23.701
ltibia 34.3889
lfoot -26.0141 3.82213
ltoes -35.6934
192
root 7.81892 14.9923 41.9516 178.837 -20.4494 -179.366
lowerback 7.29038 2.70118 0.97535
upperback -2.53214 3.69345 -0.140644
thorax -6.66662 1.76804 -1.16904
lowerneck -4.98331 13.6165 7.01778
upperneck 13.5788 17.7963 -1.85111
head 5.71795 8.83946 -0.417815
rclavicle -3.34548e-014 -2.43511e-015
rhumerus -49.0315 13.9365 -97.381
rradius 34.2137
rwrist 12.8303
rhand -6.25798 -55.1303
rfingers 7.12502
rthumb 19.5843 -84.1639
lclavicle -3.34548e-014 -2.43511e-015
lhumerus -40.3152 0.0813071 84.8225
lradius 34.3093
lwrist -13.0724
lhand -7.2478 -33.2235
lfingers 7.12502
lthumb 18.6325 -4.09585
rfemur -3.61377 4.16784 24.4832
rtibia 30.4398
rfoot -29.238 -32.1449
rtoes 8.34886
lfemur -11.6506 -25.1268 -23.6565
ltibia 34.4081
lfoot -25.9659 3.58371
ltoes -36.0899
